<svg xmlns="http://www.w3.org/2000/svg" width="1019" height="635" viewBox="0 0 1019 635" version="1.1"><path d="M 266.465 231.914 C 265.346 232.388, 263.919 233.392, 263.294 234.146 C 262.669 234.899, 250.872 257.112, 237.078 283.507 C 223.285 309.903, 211.716 333.006, 211.370 334.846 C 211.024 336.687, 211.253 339.900, 211.878 341.987 C 212.892 345.372, 213.709 346.076, 219.446 348.514 C 223.515 350.244, 226.758 351.027, 228.276 350.646 C 229.595 350.314, 231.882 349.094, 233.357 347.933 C 234.833 346.773, 236.778 344.401, 237.679 342.662 C 238.581 340.923, 248.029 318.125, 258.676 292 C 269.323 265.875, 278.296 242.890, 278.617 240.922 C 279.082 238.071, 278.724 236.802, 276.850 234.671 C 275.558 233.201, 273.150 231.785, 271.500 231.524 C 269.850 231.264, 267.584 231.439, 266.465 231.914 M 316.249 285.207 C 315.663 285.918, 311.522 295.725, 307.047 307 C 301.768 320.302, 298.049 328.273, 296.456 329.702 C 295.105 330.913, 294 332.845, 294 333.996 C 294 335.951, 294.468 336.068, 301.170 335.794 C 305.635 335.611, 308.490 335.046, 308.737 334.298 C 308.956 333.637, 308.204 332.299, 307.067 331.326 C 305.930 330.352, 305.006 328.643, 305.014 327.528 C 305.021 326.412, 305.303 324.472, 305.639 323.215 C 306.229 321.012, 306.591 320.941, 315.739 321.215 C 325.227 321.500, 325.227 321.500, 326.791 325.426 C 328.299 329.212, 328.277 329.404, 326.177 330.798 C 324.980 331.593, 324 333.089, 324 334.122 C 324 335.834, 324.883 336, 334 336 C 343.476 336, 344 335.891, 344 333.910 C 344 332.761, 343.086 331.073, 341.969 330.160 C 340.852 329.247, 335.544 318.602, 330.173 306.505 C 324.187 293.021, 319.810 284.395, 318.862 284.212 C 318.012 284.048, 316.836 284.496, 316.249 285.207 M 348.402 285.160 C 348.177 285.523, 348.268 286.535, 348.604 287.410 C 348.939 288.284, 349.584 289, 350.036 289 C 350.487 289, 351.564 289.707, 352.429 290.571 C 353.744 291.886, 354 295.153, 354 310.593 C 354 329.043, 354 329.043, 351.500 330.182 C 350.125 330.808, 349 331.662, 349 332.079 C 349 332.495, 348.727 333.548, 348.393 334.418 C 347.863 335.799, 349.132 336, 358.393 336 C 369 336, 369 336, 369 333.500 C 369 331.971, 368.431 331, 367.535 331 C 366.730 331, 365.605 330.130, 365.035 329.066 C 364.466 328.002, 364 324.177, 364 320.566 C 364 314.768, 364.224 314, 365.911 314 C 366.962 314, 369.018 315.421, 370.479 317.158 C 371.941 318.894, 374.911 323.844, 377.079 328.158 C 381.022 336, 381.022 336, 387.944 336 C 394.071 336, 394.941 335.762, 395.524 333.925 C 395.886 332.783, 396.029 331.749, 395.841 331.627 C 395.654 331.505, 394.281 330.882, 392.791 330.242 C 391.300 329.603, 388.867 327.149, 387.383 324.790 C 385.898 322.430, 383.408 318.630, 381.848 316.345 C 379.012 312.190, 379.012 312.190, 382.562 310.096 C 384.875 308.731, 386.813 306.416, 388.125 303.451 C 389.520 300.297, 389.933 297.920, 389.470 295.701 C 389.104 293.940, 388.207 291.555, 387.477 290.399 C 386.747 289.244, 384.429 287.483, 382.327 286.485 C 379.200 285.001, 375.801 284.655, 363.657 284.585 C 355.491 284.538, 348.626 284.797, 348.402 285.160 M 399.930 286 C 399.888 286.825, 399.521 289.832, 399.115 292.683 C 398.448 297.361, 398.571 297.916, 400.386 298.391 C 401.491 298.680, 402.982 298.430, 403.698 297.836 C 404.414 297.241, 405 296.185, 405 295.488 C 405 294.792, 405.788 293.308, 406.750 292.191 C 407.712 291.074, 409.962 289.864, 411.750 289.501 C 415 288.841, 415 288.841, 415 308.972 C 415 329.102, 415 329.102, 411.500 330.564 C 409.165 331.540, 408 332.688, 408 334.013 C 408 335.885, 408.694 336, 420 336 C 432 336, 432 336, 432 333.500 C 432 331.759, 431.453 331, 430.200 331 C 429.210 331, 427.860 330.460, 427.200 329.800 C 426.347 328.947, 426 322.852, 426 308.733 C 426 289.343, 426.048 288.879, 428 289.433 C 429.100 289.745, 430.832 290.234, 431.848 290.519 C 432.865 290.805, 434.215 292.176, 434.848 293.566 C 435.482 294.957, 436 296.797, 436 297.655 C 436 298.859, 436.630 299.059, 438.748 298.527 C 440.259 298.148, 441.649 297.684, 441.836 297.497 C 442.023 297.310, 441.869 294.294, 441.495 290.795 C 440.813 284.433, 440.813 284.433, 420.409 284.466 C 402.988 284.495, 399.994 284.719, 399.930 286 M 494.942 284.889 C 493.534 285.348, 491.284 286.291, 489.942 286.982 C 488.599 287.674, 486.036 289.625, 484.248 291.319 C 482.459 293.012, 480.096 296.800, 478.998 299.736 C 477.899 302.672, 477 307.292, 477 310.003 C 477 312.713, 477.726 317.067, 478.612 319.679 C 479.499 322.291, 481.344 325.895, 482.712 327.689 C 484.080 329.483, 487.641 332.145, 490.625 333.605 C 495.392 335.937, 496.929 336.202, 503.276 335.788 C 507.985 335.480, 511.997 334.549, 514.799 333.113 C 517.163 331.901, 519.360 330.225, 519.682 329.388 C 520.003 328.550, 519.836 327.436, 519.310 326.910 C 518.704 326.304, 516.595 326.734, 513.528 328.091 C 509.962 329.668, 507.415 330.102, 503.776 329.753 C 501.067 329.492, 497.647 328.389, 496.176 327.301 C 494.704 326.213, 492.375 323.338, 491 320.911 C 488.861 317.138, 488.506 315.271, 488.543 308 C 488.573 301.877, 489.076 298.579, 490.341 296.206 C 491.307 294.394, 493.538 292.033, 495.299 290.960 C 497.070 289.879, 500.299 289.006, 502.527 289.004 C 504.743 289.002, 507.554 289.700, 508.774 290.555 C 510.149 291.517, 511.235 293.620, 511.628 296.077 C 511.977 298.259, 512.633 300.273, 513.085 300.553 C 513.538 300.832, 515.054 300.774, 516.454 300.422 C 518.821 299.828, 519 299.369, 519 293.905 C 519 288.068, 518.973 288.015, 515.250 286.399 C 513.188 285.504, 508.350 284.610, 504.500 284.412 C 500.650 284.215, 496.349 284.429, 494.942 284.889 M 526.418 284.917 C 526.188 285.146, 526 286.086, 526 287.006 C 526 287.926, 527.125 289.192, 528.500 289.818 C 531 290.957, 531 290.957, 531 310.460 C 531 329.962, 531 329.962, 528.500 330.589 C 526.705 331.040, 526 331.891, 526 333.608 C 526 335.972, 526.119 336, 536.031 336 C 544.416 336, 546.166 335.730, 546.694 334.356 C 547.113 333.263, 546.433 332.062, 544.662 330.773 C 542.193 328.974, 542 328.296, 542 321.417 C 542 314.674, 542.181 314, 543.994 314 C 545.159 314, 547.133 315.592, 548.744 317.833 C 550.260 319.940, 553.049 324.890, 554.943 328.833 C 558.386 336, 558.386 336, 565.693 336 C 572.606 336, 573 335.879, 572.994 333.750 C 572.990 332.306, 571.925 330.896, 570.021 329.812 C 568.390 328.884, 565.407 325.509, 563.392 322.312 C 561.378 319.116, 558.845 315.523, 557.764 314.328 C 555.798 312.156, 555.798 312.156, 558.649 310.673 C 560.217 309.857, 562.588 308.026, 563.917 306.603 C 565.653 304.744, 566.456 302.535, 566.765 298.758 C 567.119 294.449, 566.802 293, 565.010 290.730 C 563.807 289.207, 561.401 287.221, 559.662 286.318 C 557.173 285.025, 553.345 284.657, 541.668 284.588 C 533.511 284.539, 526.648 284.688, 526.418 284.917 M 577.999 286.750 C 578 287.988, 578.418 289, 578.929 289 C 579.439 289, 580.564 289.707, 581.429 290.571 C 582.744 291.886, 583 295.153, 583 310.593 C 583 329.043, 583 329.043, 580.500 330.182 C 578.870 330.924, 578 332.135, 578 333.661 C 578 335.965, 578.159 336, 588.500 336 C 598.906 336, 599 335.979, 599 333.608 C 599 331.929, 598.297 331.040, 596.638 330.624 C 594.712 330.141, 594.158 329.172, 593.638 325.376 C 593.287 322.816, 593 315.896, 593 310 C 593 304.104, 593.287 297.184, 593.638 294.624 C 594.163 290.794, 594.704 289.861, 596.692 289.363 C 598.363 288.943, 599.014 288.165, 598.804 286.837 C 598.530 285.106, 597.497 284.898, 588.249 284.709 C 578.224 284.505, 577.999 284.549, 577.999 286.750 M 605.479 285.035 C 605.297 285.329, 604.839 288.299, 604.462 291.635 C 603.871 296.861, 604.016 297.792, 605.515 298.367 C 606.471 298.734, 607.871 298.522, 608.627 297.895 C 609.382 297.268, 610 296.185, 610 295.488 C 610 294.792, 610.788 293.308, 611.750 292.191 C 612.712 291.074, 614.962 289.864, 616.750 289.501 C 620 288.841, 620 288.841, 620 308.942 C 620 329.043, 620 329.043, 617.250 330.251 C 615.737 330.916, 614.169 331.918, 613.765 332.480 C 613.361 333.041, 613.024 334.063, 613.015 334.750 C 613.004 335.681, 616.058 336, 625 336 C 637 336, 637 336, 637 333.500 C 637 331.759, 636.453 331, 635.200 331 C 634.210 331, 632.860 330.460, 632.200 329.800 C 631.347 328.947, 631 322.867, 631 308.800 C 631 297.910, 631.383 289, 631.851 289 C 632.319 289, 634.128 289.497, 635.872 290.105 C 637.616 290.713, 639.483 292.033, 640.021 293.039 C 640.559 294.045, 641 295.851, 641 297.051 C 641 298.826, 641.420 299.121, 643.250 298.630 C 644.487 298.299, 645.837 298.021, 646.250 298.014 C 646.663 298.006, 647 296.256, 647 294.125 C 647 291.994, 646.740 288.951, 646.423 287.363 C 645.845 284.477, 645.845 284.477, 625.827 284.488 C 614.817 284.495, 605.660 284.741, 605.479 285.035 M 652.417 284.917 C 652.188 285.146, 652 286.086, 652 287.006 C 652 287.926, 653.125 289.192, 654.500 289.818 C 657 290.957, 657 290.957, 657 310.460 C 657 329.962, 657 329.962, 654.500 330.589 C 652.705 331.040, 652 331.891, 652 333.608 C 652 335.979, 652.094 336, 662.500 336 C 672.740 336, 673 335.944, 673 333.737 C 673 332.350, 672.130 331.092, 670.750 330.487 C 668.543 329.519, 668.495 329.132, 668.228 310.238 C 667.957 290.977, 667.957 290.977, 670.478 289.828 C 672.003 289.133, 673 287.853, 673 286.589 C 673 284.608, 672.477 284.500, 662.917 284.500 C 657.371 284.500, 652.646 284.688, 652.417 284.917 M 696.245 284.977 C 694.454 285.402, 691.409 286.818, 689.478 288.125 C 687.547 289.431, 684.839 292.114, 683.461 294.087 C 682.082 296.060, 680.501 299.210, 679.948 301.087 C 679.395 302.964, 678.919 307.083, 678.891 310.240 C 678.862 313.397, 679.388 317.672, 680.061 319.740 C 680.733 321.808, 682.655 325.248, 684.332 327.384 C 686.058 329.583, 689.576 332.290, 692.440 333.624 C 695.223 334.920, 698.708 335.985, 700.185 335.990 C 701.662 335.996, 704.137 336.470, 705.685 337.044 C 707.233 337.618, 711.079 340.768, 714.231 344.044 C 717.383 347.320, 720.758 349.965, 721.731 349.922 C 722.704 349.880, 725.750 349.056, 728.500 348.091 C 732.171 346.804, 733.585 345.761, 733.820 344.169 C 734.070 342.472, 733.634 342.003, 731.820 342.015 C 730.544 342.023, 726.237 340.360, 722.250 338.319 C 718.263 336.279, 715 334.247, 715 333.804 C 715 333.362, 715.434 333, 715.965 333 C 716.496 333, 718.548 331.580, 720.524 329.845 C 722.501 328.109, 725.059 324.847, 726.209 322.595 C 727.446 320.172, 728.495 315.776, 728.779 311.829 C 729.134 306.874, 728.776 303.819, 727.386 299.954 C 726.355 297.085, 723.852 293.088, 721.808 291.043 C 719.582 288.817, 716.038 286.670, 712.936 285.668 C 710.095 284.751, 705.910 284.046, 703.635 284.102 C 701.361 284.159, 698.035 284.552, 696.245 284.977 M 733.999 286.628 C 734 287.798, 734.997 289.418, 736.217 290.228 C 738.330 291.631, 738.459 292.531, 738.985 309.600 C 739.397 322.978, 739.910 328.075, 741.018 329.778 C 741.833 331.030, 744.330 332.943, 746.566 334.028 C 749.240 335.325, 752.662 335.992, 756.566 335.978 C 760.163 335.965, 764.105 335.227, 766.576 334.105 C 769.435 332.806, 771.212 331.096, 772.529 328.377 C 774.049 325.239, 774.511 321.308, 774.954 307.767 C 775.477 291.730, 775.596 290.966, 777.805 289.422 C 779.073 288.535, 779.973 287.129, 779.805 286.297 C 779.565 285.109, 777.892 284.784, 772 284.781 C 765.359 284.779, 764.466 284.999, 764.204 286.708 C 764.012 287.959, 764.772 289.031, 766.363 289.756 C 768.552 290.753, 768.896 291.710, 769.541 298.591 C 769.938 302.835, 769.966 310.401, 769.602 315.404 C 769.137 321.790, 768.399 325.245, 767.124 327 C 766.126 328.375, 763.740 329.898, 761.823 330.385 C 759.339 331.016, 757.498 330.872, 755.418 329.884 C 753.813 329.122, 751.707 326.923, 750.738 324.999 C 749.242 322.028, 749.016 319.162, 749.238 306 C 749.491 291.005, 749.573 290.468, 751.750 289.513 C 753.012 288.959, 753.999 287.642, 753.998 286.513 C 753.997 284.630, 753.351 284.500, 743.997 284.500 C 734.464 284.500, 733.998 284.599, 733.999 286.628 M 785.441 284.892 C 785.199 285.135, 785 286.158, 785 287.167 C 785 288.175, 785.450 289, 786 289 C 786.550 289, 787.900 289.900, 789 291 C 790.837 292.837, 790.999 294.323, 790.986 309.250 C 790.979 318.188, 790.716 326.458, 790.402 327.628 C 790.087 328.799, 788.744 330.251, 787.415 330.857 C 786.009 331.497, 785 332.810, 785 334 C 785 335.996, 785.443 336.037, 804.200 335.772 C 823.400 335.500, 823.400 335.500, 824.544 329.166 C 825.672 322.925, 825.654 322.819, 823.280 321.916 C 821.954 321.412, 820.674 321, 820.435 321 C 820.196 321, 820 321.668, 820 322.484 C 820 323.301, 818.742 325.376, 817.204 327.097 C 814.728 329.869, 813.752 330.242, 808.670 330.363 C 804.545 330.462, 802.665 330.078, 801.981 329 C 801.458 328.175, 801.024 323.962, 801.015 319.639 C 801 311.777, 801 311.777, 804.750 312.452 C 806.813 312.822, 809.063 313.859, 809.750 314.754 C 810.438 315.650, 811 316.971, 811 317.691 C 811 318.421, 812.107 319, 813.500 319 C 815.981 319, 816 318.933, 816 310 C 816 301.630, 815.858 301, 813.975 301 C 812.757 301, 811.586 301.958, 811.037 303.403 C 810.534 304.724, 809.758 306.015, 809.312 306.272 C 808.865 306.528, 806.813 307.042, 804.750 307.414 C 801 308.091, 801 308.091, 801 298.421 C 801 288.752, 801 288.752, 806.669 289.222 C 811.267 289.604, 812.780 290.205, 814.669 292.402 C 815.951 293.892, 817 295.761, 817 296.556 C 817 297.434, 817.991 298, 819.531 298 C 820.924 298, 822.257 297.438, 822.495 296.750 C 822.732 296.063, 822.606 293.025, 822.213 290 C 821.500 284.500, 821.500 284.500, 803.691 284.475 C 793.897 284.462, 785.684 284.649, 785.441 284.892 M 364.667 289.667 C 364.300 290.033, 364 294.592, 364 299.797 C 364 309.260, 364 309.260, 368.718 308.728 C 372.354 308.318, 374.073 307.483, 376.218 305.083 C 377.748 303.370, 379 301.143, 379 300.133 C 379 299.124, 378.489 296.833, 377.865 295.042 C 377.095 292.834, 375.656 291.336, 373.397 290.392 C 371.564 289.627, 369 289, 367.699 289 C 366.398 289, 365.033 289.300, 364.667 289.667 M 542.750 289.574 C 542.337 289.991, 542 294.533, 542 299.667 C 542 308.987, 542.003 309, 544.532 309 C 545.925 309, 548.589 308.363, 550.452 307.585 C 552.315 306.806, 554.325 305.261, 554.920 304.150 C 555.514 303.040, 556 300.552, 556 298.622 C 556 296.423, 555.159 294.134, 553.748 292.494 C 552.268 290.773, 550.127 289.694, 547.498 289.345 C 545.299 289.053, 543.163 289.156, 542.750 289.574 M 696.401 290.841 C 694.549 292.004, 692.600 294.539, 691.557 297.143 C 690.442 299.924, 689.820 304.127, 689.837 308.761 C 689.857 314.344, 690.441 317.283, 692.364 321.484 C 694.001 325.060, 696.012 327.646, 698.183 328.970 C 700.007 330.082, 703.033 330.994, 704.906 330.996 C 706.996 330.999, 709.569 330.041, 711.566 328.517 C 713.398 327.120, 715.567 324.081, 716.527 321.570 C 717.726 318.428, 718.117 315.089, 717.845 310.302 C 717.582 305.666, 716.669 301.925, 714.979 298.552 C 713.616 295.831, 711.336 292.760, 709.913 291.729 C 708.491 290.697, 705.566 289.638, 703.413 289.374 C 700.626 289.033, 698.608 289.455, 696.401 290.841 M 314.375 300.607 C 314.005 301.648, 312.645 305.165, 311.351 308.422 C 310.058 311.680, 309 314.717, 309 315.172 C 309 315.628, 311.925 316, 315.500 316 C 319.075 316, 322 315.654, 322 315.231 C 322 314.808, 320.596 311.096, 318.879 306.981 C 317.162 302.866, 315.598 299.323, 315.403 299.107 C 315.207 298.891, 314.745 299.566, 314.375 300.607 M 448.667 313.667 C 448.300 314.033, 448 315.383, 448 316.667 C 448 318.968, 448.148 319, 458.883 319 C 469.324 319, 469.791 318.909, 470.370 316.750 C 470.701 315.512, 470.979 314.163, 470.986 313.750 C 470.994 313.337, 466.125 313, 460.167 313 C 454.208 313, 449.033 313.300, 448.667 313.667 M 204.481 350.394 C 202.821 351.117, 200.031 353.340, 198.281 355.333 C 196.456 357.411, 194.841 360.566, 194.494 362.729 C 194.162 364.803, 193.709 367.375, 193.488 368.443 C 193.267 369.512, 193.786 373.858, 194.641 378.102 C 196.055 385.122, 196.051 386.312, 194.598 391.312 C 193.719 394.335, 193 397.131, 193 397.526 C 193 397.922, 193.686 397.676, 194.524 396.980 C 195.362 396.284, 196.299 395.966, 196.605 396.272 C 196.911 396.578, 196.646 397.792, 196.016 398.970 C 195.386 400.147, 195.012 401.531, 195.185 402.044 C 195.358 402.557, 198.630 401.102, 202.455 398.811 C 206.280 396.519, 212.130 391.880, 215.455 388.503 C 218.780 385.125, 222.689 380.142, 224.143 377.431 C 225.596 374.719, 227.105 370.992, 227.494 369.149 C 227.896 367.250, 227.681 363.934, 226.999 361.495 C 226.328 359.100, 224.399 355.880, 222.647 354.230 C 220.916 352.601, 217.970 350.758, 216.101 350.134 C 214.231 349.510, 211.531 349.018, 210.101 349.039 C 208.670 349.061, 206.142 349.670, 204.481 350.394" stroke="none" fill="#ffffff" fill-rule="evenodd"/><path d="M 266.465 231.914 C 265.346 232.388, 263.919 233.392, 263.294 234.146 C 262.669 234.899, 250.872 257.112, 237.078 283.507 C 223.285 309.903, 211.716 333.006, 211.370 334.846 C 211.024 336.687, 211.253 339.900, 211.878 341.987 C 212.892 345.372, 213.709 346.076, 219.446 348.514 C 223.515 350.244, 226.758 351.027, 228.276 350.646 C 229.595 350.314, 231.882 349.094, 233.357 347.933 C 234.833 346.773, 236.778 344.401, 237.679 342.662 C 238.581 340.923, 248.029 318.125, 258.676 292 C 269.323 265.875, 278.296 242.890, 278.617 240.922 C 279.082 238.071, 278.724 236.802, 276.850 234.671 C 275.558 233.201, 273.150 231.785, 271.500 231.524 C 269.850 231.264, 267.584 231.439, 266.465 231.914 M 316.249 285.207 C 315.663 285.918, 311.522 295.725, 307.047 307 C 301.768 320.302, 298.049 328.273, 296.456 329.702 C 295.105 330.913, 294 332.845, 294 333.996 C 294 335.951, 294.468 336.068, 301.170 335.794 C 305.635 335.611, 308.490 335.046, 308.737 334.298 C 308.956 333.637, 308.204 332.299, 307.067 331.326 C 305.930 330.352, 305.006 328.643, 305.014 327.528 C 305.021 326.412, 305.303 324.472, 305.639 323.215 C 306.229 321.012, 306.591 320.941, 315.739 321.215 C 325.227 321.500, 325.227 321.500, 326.791 325.426 C 328.299 329.212, 328.277 329.404, 326.177 330.798 C 324.980 331.593, 324 333.089, 324 334.122 C 324 335.834, 324.883 336, 334 336 C 343.476 336, 344 335.891, 344 333.910 C 344 332.761, 343.086 331.073, 341.969 330.160 C 340.852 329.247, 335.544 318.602, 330.173 306.505 C 324.187 293.021, 319.810 284.395, 318.862 284.212 C 318.012 284.048, 316.836 284.496, 316.249 285.207 M 348.402 285.160 C 348.177 285.523, 348.268 286.535, 348.604 287.410 C 348.939 288.284, 349.584 289, 350.036 289 C 350.487 289, 351.564 289.707, 352.429 290.571 C 353.744 291.886, 354 295.153, 354 310.593 C 354 329.043, 354 329.043, 351.500 330.182 C 350.125 330.808, 349 331.662, 349 332.079 C 349 332.495, 348.727 333.548, 348.393 334.418 C 347.863 335.799, 349.132 336, 358.393 336 C 369 336, 369 336, 369 333.500 C 369 331.971, 368.431 331, 367.535 331 C 366.730 331, 365.605 330.130, 365.035 329.066 C 364.466 328.002, 364 324.177, 364 320.566 C 364 314.768, 364.224 314, 365.911 314 C 366.962 314, 369.018 315.421, 370.479 317.158 C 371.941 318.894, 374.911 323.844, 377.079 328.158 C 381.022 336, 381.022 336, 387.944 336 C 394.071 336, 394.941 335.762, 395.524 333.925 C 395.886 332.783, 396.029 331.749, 395.841 331.627 C 395.654 331.505, 394.281 330.882, 392.791 330.242 C 391.300 329.603, 388.867 327.149, 387.383 324.790 C 385.898 322.430, 383.408 318.630, 381.848 316.345 C 379.012 312.190, 379.012 312.190, 382.562 310.096 C 384.875 308.731, 386.813 306.416, 388.125 303.451 C 389.520 300.297, 389.933 297.920, 389.470 295.701 C 389.104 293.940, 388.207 291.555, 387.477 290.399 C 386.747 289.244, 384.429 287.483, 382.327 286.485 C 379.200 285.001, 375.801 284.655, 363.657 284.585 C 355.491 284.538, 348.626 284.797, 348.402 285.160 M 399.930 286 C 399.888 286.825, 399.521 289.832, 399.115 292.683 C 398.448 297.361, 398.571 297.916, 400.386 298.391 C 401.491 298.680, 402.982 298.430, 403.698 297.836 C 404.414 297.241, 405 296.185, 405 295.488 C 405 294.792, 405.788 293.308, 406.750 292.191 C 407.712 291.074, 409.962 289.864, 411.750 289.501 C 415 288.841, 415 288.841, 415 308.972 C 415 329.102, 415 329.102, 411.500 330.564 C 409.165 331.540, 408 332.688, 408 334.013 C 408 335.885, 408.694 336, 420 336 C 432 336, 432 336, 432 333.500 C 432 331.759, 431.453 331, 430.200 331 C 429.210 331, 427.860 330.460, 427.200 329.800 C 426.347 328.947, 426 322.852, 426 308.733 C 426 289.343, 426.048 288.879, 428 289.433 C 429.100 289.745, 430.832 290.234, 431.848 290.519 C 432.865 290.805, 434.215 292.176, 434.848 293.566 C 435.482 294.957, 436 296.797, 436 297.655 C 436 298.859, 436.630 299.059, 438.748 298.527 C 440.259 298.148, 441.649 297.684, 441.836 297.497 C 442.023 297.310, 441.869 294.294, 441.495 290.795 C 440.813 284.433, 440.813 284.433, 420.409 284.466 C 402.988 284.495, 399.994 284.719, 399.930 286 M 494.942 284.889 C 493.534 285.348, 491.284 286.291, 489.942 286.982 C 488.599 287.674, 486.036 289.625, 484.248 291.319 C 482.459 293.012, 480.096 296.800, 478.998 299.736 C 477.899 302.672, 477 307.292, 477 310.003 C 477 312.713, 477.726 317.067, 478.612 319.679 C 479.499 322.291, 481.344 325.895, 482.712 327.689 C 484.080 329.483, 487.641 332.145, 490.625 333.605 C 495.392 335.937, 496.929 336.202, 503.276 335.788 C 507.985 335.480, 511.997 334.549, 514.799 333.113 C 517.163 331.901, 519.360 330.225, 519.682 329.388 C 520.003 328.550, 519.836 327.436, 519.310 326.910 C 518.704 326.304, 516.595 326.734, 513.528 328.091 C 509.962 329.668, 507.415 330.102, 503.776 329.753 C 501.067 329.492, 497.647 328.389, 496.176 327.301 C 494.704 326.213, 492.375 323.338, 491 320.911 C 488.861 317.138, 488.506 315.271, 488.543 308 C 488.573 301.877, 489.076 298.579, 490.341 296.206 C 491.307 294.394, 493.538 292.033, 495.299 290.960 C 497.070 289.879, 500.299 289.006, 502.527 289.004 C 504.743 289.002, 507.554 289.700, 508.774 290.555 C 510.149 291.517, 511.235 293.620, 511.628 296.077 C 511.977 298.259, 512.633 300.273, 513.085 300.553 C 513.538 300.832, 515.054 300.774, 516.454 300.422 C 518.821 299.828, 519 299.369, 519 293.905 C 519 288.068, 518.973 288.015, 515.250 286.399 C 513.188 285.504, 508.350 284.610, 504.500 284.412 C 500.650 284.215, 496.349 284.429, 494.942 284.889 M 526.418 284.917 C 526.188 285.146, 526 286.086, 526 287.006 C 526 287.926, 527.125 289.192, 528.500 289.818 C 531 290.957, 531 290.957, 531 310.460 C 531 329.962, 531 329.962, 528.500 330.589 C 526.705 331.040, 526 331.891, 526 333.608 C 526 335.972, 526.119 336, 536.031 336 C 544.416 336, 546.166 335.730, 546.694 334.356 C 547.113 333.263, 546.433 332.062, 544.662 330.773 C 542.193 328.974, 542 328.296, 542 321.417 C 542 314.674, 542.181 314, 543.994 314 C 545.159 314, 547.133 315.592, 548.744 317.833 C 550.260 319.940, 553.049 324.890, 554.943 328.833 C 558.386 336, 558.386 336, 565.693 336 C 572.606 336, 573 335.879, 572.994 333.750 C 572.990 332.306, 571.925 330.896, 570.021 329.812 C 568.390 328.884, 565.407 325.509, 563.392 322.312 C 561.378 319.116, 558.845 315.523, 557.764 314.328 C 555.798 312.156, 555.798 312.156, 558.649 310.673 C 560.217 309.857, 562.588 308.026, 563.917 306.603 C 565.653 304.744, 566.456 302.535, 566.765 298.758 C 567.119 294.449, 566.802 293, 565.010 290.730 C 563.807 289.207, 561.401 287.221, 559.662 286.318 C 557.173 285.025, 553.345 284.657, 541.668 284.588 C 533.511 284.539, 526.648 284.688, 526.418 284.917 M 577.999 286.750 C 578 287.988, 578.418 289, 578.929 289 C 579.439 289, 580.564 289.707, 581.429 290.571 C 582.744 291.886, 583 295.153, 583 310.593 C 583 329.043, 583 329.043, 580.500 330.182 C 578.870 330.924, 578 332.135, 578 333.661 C 578 335.965, 578.159 336, 588.500 336 C 598.906 336, 599 335.979, 599 333.608 C 599 331.929, 598.297 331.040, 596.638 330.624 C 594.712 330.141, 594.158 329.172, 593.638 325.376 C 593.287 322.816, 593 315.896, 593 310 C 593 304.104, 593.287 297.184, 593.638 294.624 C 594.163 290.794, 594.704 289.861, 596.692 289.363 C 598.363 288.943, 599.014 288.165, 598.804 286.837 C 598.530 285.106, 597.497 284.898, 588.249 284.709 C 578.224 284.505, 577.999 284.549, 577.999 286.750 M 605.479 285.035 C 605.297 285.329, 604.839 288.299, 604.462 291.635 C 603.871 296.861, 604.016 297.792, 605.515 298.367 C 606.471 298.734, 607.871 298.522, 608.627 297.895 C 609.382 297.268, 610 296.185, 610 295.488 C 610 294.792, 610.788 293.308, 611.750 292.191 C 612.712 291.074, 614.962 289.864, 616.750 289.501 C 620 288.841, 620 288.841, 620 308.942 C 620 329.043, 620 329.043, 617.250 330.251 C 615.737 330.916, 614.169 331.918, 613.765 332.480 C 613.361 333.041, 613.024 334.063, 613.015 334.750 C 613.004 335.681, 616.058 336, 625 336 C 637 336, 637 336, 637 333.500 C 637 331.759, 636.453 331, 635.200 331 C 634.210 331, 632.860 330.460, 632.200 329.800 C 631.347 328.947, 631 322.867, 631 308.800 C 631 297.910, 631.383 289, 631.851 289 C 632.319 289, 634.128 289.497, 635.872 290.105 C 637.616 290.713, 639.483 292.033, 640.021 293.039 C 640.559 294.045, 641 295.851, 641 297.051 C 641 298.826, 641.420 299.121, 643.250 298.630 C 644.487 298.299, 645.837 298.021, 646.250 298.014 C 646.663 298.006, 647 296.256, 647 294.125 C 647 291.994, 646.740 288.951, 646.423 287.363 C 645.845 284.477, 645.845 284.477, 625.827 284.488 C 614.817 284.495, 605.660 284.741, 605.479 285.035 M 652.417 284.917 C 652.188 285.146, 652 286.086, 652 287.006 C 652 287.926, 653.125 289.192, 654.500 289.818 C 657 290.957, 657 290.957, 657 310.460 C 657 329.962, 657 329.962, 654.500 330.589 C 652.705 331.040, 652 331.891, 652 333.608 C 652 335.979, 652.094 336, 662.500 336 C 672.740 336, 673 335.944, 673 333.737 C 673 332.350, 672.130 331.092, 670.750 330.487 C 668.543 329.519, 668.495 329.132, 668.228 310.238 C 667.957 290.977, 667.957 290.977, 670.478 289.828 C 672.003 289.133, 673 287.853, 673 286.589 C 673 284.608, 672.477 284.500, 662.917 284.500 C 657.371 284.500, 652.646 284.688, 652.417 284.917 M 696.245 284.977 C 694.454 285.402, 691.409 286.818, 689.478 288.125 C 687.547 289.431, 684.839 292.114, 683.461 294.087 C 682.082 296.060, 680.501 299.210, 679.948 301.087 C 679.395 302.964, 678.919 307.083, 678.891 310.240 C 678.862 313.397, 679.388 317.672, 680.061 319.740 C 680.733 321.808, 682.655 325.248, 684.332 327.384 C 686.058 329.583, 689.576 332.290, 692.440 333.624 C 695.223 334.920, 698.708 335.985, 700.185 335.990 C 701.662 335.996, 704.137 336.470, 705.685 337.044 C 707.233 337.618, 711.079 340.768, 714.231 344.044 C 717.383 347.320, 720.758 349.965, 721.731 349.922 C 722.704 349.880, 725.750 349.056, 728.500 348.091 C 732.171 346.804, 733.585 345.761, 733.820 344.169 C 734.070 342.472, 733.634 342.003, 731.820 342.015 C 730.544 342.023, 726.237 340.360, 722.250 338.319 C 718.263 336.279, 715 334.247, 715 333.804 C 715 333.362, 715.434 333, 715.965 333 C 716.496 333, 718.548 331.580, 720.524 329.845 C 722.501 328.109, 725.059 324.847, 726.209 322.595 C 727.446 320.172, 728.495 315.776, 728.779 311.829 C 729.134 306.874, 728.776 303.819, 727.386 299.954 C 726.355 297.085, 723.852 293.088, 721.808 291.043 C 719.582 288.817, 716.038 286.670, 712.936 285.668 C 710.095 284.751, 705.910 284.046, 703.635 284.102 C 701.361 284.159, 698.035 284.552, 696.245 284.977 M 733.999 286.628 C 734 287.798, 734.997 289.418, 736.217 290.228 C 738.330 291.631, 738.459 292.531, 738.985 309.600 C 739.397 322.978, 739.910 328.075, 741.018 329.778 C 741.833 331.030, 744.330 332.943, 746.566 334.028 C 749.240 335.325, 752.662 335.992, 756.566 335.978 C 760.163 335.965, 764.105 335.227, 766.576 334.105 C 769.435 332.806, 771.212 331.096, 772.529 328.377 C 774.049 325.239, 774.511 321.308, 774.954 307.767 C 775.477 291.730, 775.596 290.966, 777.805 289.422 C 779.073 288.535, 779.973 287.129, 779.805 286.297 C 779.565 285.109, 777.892 284.784, 772 284.781 C 765.359 284.779, 764.466 284.999, 764.204 286.708 C 764.012 287.959, 764.772 289.031, 766.363 289.756 C 768.552 290.753, 768.896 291.710, 769.541 298.591 C 769.938 302.835, 769.966 310.401, 769.602 315.404 C 769.137 321.790, 768.399 325.245, 767.124 327 C 766.126 328.375, 763.740 329.898, 761.823 330.385 C 759.339 331.016, 757.498 330.872, 755.418 329.884 C 753.813 329.122, 751.707 326.923, 750.738 324.999 C 749.242 322.028, 749.016 319.162, 749.238 306 C 749.491 291.005, 749.573 290.468, 751.750 289.513 C 753.012 288.959, 753.999 287.642, 753.998 286.513 C 753.997 284.630, 753.351 284.500, 743.997 284.500 C 734.464 284.500, 733.998 284.599, 733.999 286.628 M 785.441 284.892 C 785.199 285.135, 785 286.158, 785 287.167 C 785 288.175, 785.450 289, 786 289 C 786.550 289, 787.900 289.900, 789 291 C 790.837 292.837, 790.999 294.323, 790.986 309.250 C 790.979 318.188, 790.716 326.458, 790.402 327.628 C 790.087 328.799, 788.744 330.251, 787.415 330.857 C 786.009 331.497, 785 332.810, 785 334 C 785 335.996, 785.443 336.037, 804.200 335.772 C 823.400 335.500, 823.400 335.500, 824.544 329.166 C 825.672 322.925, 825.654 322.819, 823.280 321.916 C 821.954 321.412, 820.674 321, 820.435 321 C 820.196 321, 820 321.668, 820 322.484 C 820 323.301, 818.742 325.376, 817.204 327.097 C 814.728 329.869, 813.752 330.242, 808.670 330.363 C 804.545 330.462, 802.665 330.078, 801.981 329 C 801.458 328.175, 801.024 323.962, 801.015 319.639 C 801 311.777, 801 311.777, 804.750 312.452 C 806.813 312.822, 809.063 313.859, 809.750 314.754 C 810.438 315.650, 811 316.971, 811 317.691 C 811 318.421, 812.107 319, 813.500 319 C 815.981 319, 816 318.933, 816 310 C 816 301.630, 815.858 301, 813.975 301 C 812.757 301, 811.586 301.958, 811.037 303.403 C 810.534 304.724, 809.758 306.015, 809.312 306.272 C 808.865 306.528, 806.813 307.042, 804.750 307.414 C 801 308.091, 801 308.091, 801 298.421 C 801 288.752, 801 288.752, 806.669 289.222 C 811.267 289.604, 812.780 290.205, 814.669 292.402 C 815.951 293.892, 817 295.761, 817 296.556 C 817 297.434, 817.991 298, 819.531 298 C 820.924 298, 822.257 297.438, 822.495 296.750 C 822.732 296.063, 822.606 293.025, 822.213 290 C 821.500 284.500, 821.500 284.500, 803.691 284.475 C 793.897 284.462, 785.684 284.649, 785.441 284.892 M 364.667 289.667 C 364.300 290.033, 364 294.592, 364 299.797 C 364 309.260, 364 309.260, 368.718 308.728 C 372.354 308.318, 374.073 307.483, 376.218 305.083 C 377.748 303.370, 379 301.143, 379 300.133 C 379 299.124, 378.489 296.833, 377.865 295.042 C 377.095 292.834, 375.656 291.336, 373.397 290.392 C 371.564 289.627, 369 289, 367.699 289 C 366.398 289, 365.033 289.300, 364.667 289.667 M 542.750 289.574 C 542.337 289.991, 542 294.533, 542 299.667 C 542 308.987, 542.003 309, 544.532 309 C 545.925 309, 548.589 308.363, 550.452 307.585 C 552.315 306.806, 554.325 305.261, 554.920 304.150 C 555.514 303.040, 556 300.552, 556 298.622 C 556 296.423, 555.159 294.134, 553.748 292.494 C 552.268 290.773, 550.127 289.694, 547.498 289.345 C 545.299 289.053, 543.163 289.156, 542.750 289.574 M 696.401 290.841 C 694.549 292.004, 692.600 294.539, 691.557 297.143 C 690.442 299.924, 689.820 304.127, 689.837 308.761 C 689.857 314.344, 690.441 317.283, 692.364 321.484 C 694.001 325.060, 696.012 327.646, 698.183 328.970 C 700.007 330.082, 703.033 330.994, 704.906 330.996 C 706.996 330.999, 709.569 330.041, 711.566 328.517 C 713.398 327.120, 715.567 324.081, 716.527 321.570 C 717.726 318.428, 718.117 315.089, 717.845 310.302 C 717.582 305.666, 716.669 301.925, 714.979 298.552 C 713.616 295.831, 711.336 292.760, 709.913 291.729 C 708.491 290.697, 705.566 289.638, 703.413 289.374 C 700.626 289.033, 698.608 289.455, 696.401 290.841 M 314.375 300.607 C 314.005 301.648, 312.645 305.165, 311.351 308.422 C 310.058 311.680, 309 314.717, 309 315.172 C 309 315.628, 311.925 316, 315.500 316 C 319.075 316, 322 315.654, 322 315.231 C 322 314.808, 320.596 311.096, 318.879 306.981 C 317.162 302.866, 315.598 299.323, 315.403 299.107 C 315.207 298.891, 314.745 299.566, 314.375 300.607 M 448.667 313.667 C 448.300 314.033, 448 315.383, 448 316.667 C 448 318.968, 448.148 319, 458.883 319 C 469.324 319, 469.791 318.909, 470.370 316.750 C 470.701 315.512, 470.979 314.163, 470.986 313.750 C 470.994 313.337, 466.125 313, 460.167 313 C 454.208 313, 449.033 313.300, 448.667 313.667 M 204.481 350.394 C 202.821 351.117, 200.031 353.340, 198.281 355.333 C 196.456 357.411, 194.841 360.566, 194.494 362.729 C 194.162 364.803, 193.709 367.375, 193.488 368.443 C 193.267 369.512, 193.786 373.858, 194.641 378.102 C 196.055 385.122, 196.051 386.312, 194.598 391.312 C 193.719 394.335, 193 397.131, 193 397.526 C 193 397.922, 193.686 397.676, 194.524 396.980 C 195.362 396.284, 196.299 395.966, 196.605 396.272 C 196.911 396.578, 196.646 397.792, 196.016 398.970 C 195.386 400.147, 195.012 401.531, 195.185 402.044 C 195.358 402.557, 198.630 401.102, 202.455 398.811 C 206.280 396.519, 212.130 391.880, 215.455 388.503 C 218.780 385.125, 222.689 380.142, 224.143 377.431 C 225.596 374.719, 227.105 370.992, 227.494 369.149 C 227.896 367.250, 227.681 363.934, 226.999 361.495 C 226.328 359.100, 224.399 355.880, 222.647 354.230 C 220.916 352.601, 217.970 350.758, 216.101 350.134 C 214.231 349.510, 211.531 349.018, 210.101 349.039 C 208.670 349.061, 206.142 349.670, 204.481 350.394" stroke="none" fill="#ffffff" fill-rule="evenodd"/><path d="M 266.465 231.914 C 265.346 232.388, 263.919 233.392, 263.294 234.146 C 262.669 234.899, 250.872 257.112, 237.078 283.507 C 223.285 309.903, 211.716 333.006, 211.370 334.846 C 211.024 336.687, 211.253 339.900, 211.878 341.987 C 212.892 345.372, 213.709 346.076, 219.446 348.514 C 223.515 350.244, 226.758 351.027, 228.276 350.646 C 229.595 350.314, 231.882 349.094, 233.357 347.933 C 234.833 346.773, 236.778 344.401, 237.679 342.662 C 238.581 340.923, 248.029 318.125, 258.676 292 C 269.323 265.875, 278.296 242.890, 278.617 240.922 C 279.082 238.071, 278.724 236.802, 276.850 234.671 C 275.558 233.201, 273.150 231.785, 271.500 231.524 C 269.850 231.264, 267.584 231.439, 266.465 231.914 M 316.249 285.207 C 315.663 285.918, 311.522 295.725, 307.047 307 C 301.768 320.302, 298.049 328.273, 296.456 329.702 C 295.105 330.913, 294 332.845, 294 333.996 C 294 335.951, 294.468 336.068, 301.170 335.794 C 305.635 335.611, 308.490 335.046, 308.737 334.298 C 308.956 333.637, 308.204 332.299, 307.067 331.326 C 305.930 330.352, 305.006 328.643, 305.014 327.528 C 305.021 326.412, 305.303 324.472, 305.639 323.215 C 306.229 321.012, 306.591 320.941, 315.739 321.215 C 325.227 321.500, 325.227 321.500, 326.791 325.426 C 328.299 329.212, 328.277 329.404, 326.177 330.798 C 324.980 331.593, 324 333.089, 324 334.122 C 324 335.834, 324.883 336, 334 336 C 343.476 336, 344 335.891, 344 333.910 C 344 332.761, 343.086 331.073, 341.969 330.160 C 340.852 329.247, 335.544 318.602, 330.173 306.505 C 324.187 293.021, 319.810 284.395, 318.862 284.212 C 318.012 284.048, 316.836 284.496, 316.249 285.207 M 348.402 285.160 C 348.177 285.523, 348.268 286.535, 348.604 287.410 C 348.939 288.284, 349.584 289, 350.036 289 C 350.487 289, 351.564 289.707, 352.429 290.571 C 353.744 291.886, 354 295.153, 354 310.593 C 354 329.043, 354 329.043, 351.500 330.182 C 350.125 330.808, 349 331.662, 349 332.079 C 349 332.495, 348.727 333.548, 348.393 334.418 C 347.863 335.799, 349.132 336, 358.393 336 C 369 336, 369 336, 369 333.500 C 369 331.971, 368.431 331, 367.535 331 C 366.730 331, 365.605 330.130, 365.035 329.066 C 364.466 328.002, 364 324.177, 364 320.566 C 364 314.768, 364.224 314, 365.911 314 C 366.962 314, 369.018 315.421, 370.479 317.158 C 371.941 318.894, 374.911 323.844, 377.079 328.158 C 381.022 336, 381.022 336, 387.944 336 C 394.071 336, 394.941 335.762, 395.524 333.925 C 395.886 332.783, 396.029 331.749, 395.841 331.627 C 395.654 331.505, 394.281 330.882, 392.791 330.242 C 391.300 329.603, 388.867 327.149, 387.383 324.790 C 385.898 322.430, 383.408 318.630, 381.848 316.345 C 379.012 312.190, 379.012 312.190, 382.562 310.096 C 384.875 308.731, 386.813 306.416, 388.125 303.451 C 389.520 300.297, 389.933 297.920, 389.470 295.701 C 389.104 293.940, 388.207 291.555, 387.477 290.399 C 386.747 289.244, 384.429 287.483, 382.327 286.485 C 379.200 285.001, 375.801 284.655, 363.657 284.585 C 355.491 284.538, 348.626 284.797, 348.402 285.160 M 399.930 286 C 399.888 286.825, 399.521 289.832, 399.115 292.683 C 398.448 297.361, 398.571 297.916, 400.386 298.391 C 401.491 298.680, 402.982 298.430, 403.698 297.836 C 404.414 297.241, 405 296.185, 405 295.488 C 405 294.792, 405.788 293.308, 406.750 292.191 C 407.712 291.074, 409.962 289.864, 411.750 289.501 C 415 288.841, 415 288.841, 415 308.972 C 415 329.102, 415 329.102, 411.500 330.564 C 409.165 331.540, 408 332.688, 408 334.013 C 408 335.885, 408.694 336, 420 336 C 432 336, 432 336, 432 333.500 C 432 331.759, 431.453 331, 430.200 331 C 429.210 331, 427.860 330.460, 427.200 329.800 C 426.347 328.947, 426 322.852, 426 308.733 C 426 289.343, 426.048 288.879, 428 289.433 C 429.100 289.745, 430.832 290.234, 431.848 290.519 C 432.865 290.805, 434.215 292.176, 434.848 293.566 C 435.482 294.957, 436 296.797, 436 297.655 C 436 298.859, 436.630 299.059, 438.748 298.527 C 440.259 298.148, 441.649 297.684, 441.836 297.497 C 442.023 297.310, 441.869 294.294, 441.495 290.795 C 440.813 284.433, 440.813 284.433, 420.409 284.466 C 402.988 284.495, 399.994 284.719, 399.930 286 M 494.942 284.889 C 493.534 285.348, 491.284 286.291, 489.942 286.982 C 488.599 287.674, 486.036 289.625, 484.248 291.319 C 482.459 293.012, 480.096 296.800, 478.998 299.736 C 477.899 302.672, 477 307.292, 477 310.003 C 477 312.713, 477.726 317.067, 478.612 319.679 C 479.499 322.291, 481.344 325.895, 482.712 327.689 C 484.080 329.483, 487.641 332.145, 490.625 333.605 C 495.392 335.937, 496.929 336.202, 503.276 335.788 C 507.985 335.480, 511.997 334.549, 514.799 333.113 C 517.163 331.901, 519.360 330.225, 519.682 329.388 C 520.003 328.550, 519.836 327.436, 519.310 326.910 C 518.704 326.304, 516.595 326.734, 513.528 328.091 C 509.962 329.668, 507.415 330.102, 503.776 329.753 C 501.067 329.492, 497.647 328.389, 496.176 327.301 C 494.704 326.213, 492.375 323.338, 491 320.911 C 488.861 317.138, 488.506 315.271, 488.543 308 C 488.573 301.877, 489.076 298.579, 490.341 296.206 C 491.307 294.394, 493.538 292.033, 495.299 290.960 C 497.070 289.879, 500.299 289.006, 502.527 289.004 C 504.743 289.002, 507.554 289.700, 508.774 290.555 C 510.149 291.517, 511.235 293.620, 511.628 296.077 C 511.977 298.259, 512.633 300.273, 513.085 300.553 C 513.538 300.832, 515.054 300.774, 516.454 300.422 C 518.821 299.828, 519 299.369, 519 293.905 C 519 288.068, 518.973 288.015, 515.250 286.399 C 513.188 285.504, 508.350 284.610, 504.500 284.412 C 500.650 284.215, 496.349 284.429, 494.942 284.889 M 526.418 284.917 C 526.188 285.146, 526 286.086, 526 287.006 C 526 287.926, 527.125 289.192, 528.500 289.818 C 531 290.957, 531 290.957, 531 310.460 C 531 329.962, 531 329.962, 528.500 330.589 C 526.705 331.040, 526 331.891, 526 333.608 C 526 335.972, 526.119 336, 536.031 336 C 544.416 336, 546.166 335.730, 546.694 334.356 C 547.113 333.263, 546.433 332.062, 544.662 330.773 C 542.193 328.974, 542 328.296, 542 321.417 C 542 314.674, 542.181 314, 543.994 314 C 545.159 314, 547.133 315.592, 548.744 317.833 C 550.260 319.940, 553.049 324.890, 554.943 328.833 C 558.386 336, 558.386 336, 565.693 336 C 572.606 336, 573 335.879, 572.994 333.750 C 572.990 332.306, 571.925 330.896, 570.021 329.812 C 568.390 328.884, 565.407 325.509, 563.392 322.312 C 561.378 319.116, 558.845 315.523, 557.764 314.328 C 555.798 312.156, 555.798 312.156, 558.649 310.673 C 560.217 309.857, 562.588 308.026, 563.917 306.603 C 565.653 304.744, 566.456 302.535, 566.765 298.758 C 567.119 294.449, 566.802 293, 565.010 290.730 C 563.807 289.207, 561.401 287.221, 559.662 286.318 C 557.173 285.025, 553.345 284.657, 541.668 284.588 C 533.511 284.539, 526.648 284.688, 526.418 284.917 M 577.999 286.750 C 578 287.988, 578.418 289, 578.929 289 C 579.439 289, 580.564 289.707, 581.429 290.571 C 582.744 291.886, 583 295.153, 583 310.593 C 583 329.043, 583 329.043, 580.500 330.182 C 578.870 330.924, 578 332.135, 578 333.661 C 578 335.965, 578.159 336, 588.500 336 C 598.906 336, 599 335.979, 599 333.608 C 599 331.929, 598.297 331.040, 596.638 330.624 C 594.712 330.141, 594.158 329.172, 593.638 325.376 C 593.287 322.816, 593 315.896, 593 310 C 593 304.104, 593.287 297.184, 593.638 294.624 C 594.163 290.794, 594.704 289.861, 596.692 289.363 C 598.363 288.943, 599.014 288.165, 598.804 286.837 C 598.530 285.106, 597.497 284.898, 588.249 284.709 C 578.224 284.505, 577.999 284.549, 577.999 286.750 M 605.479 285.035 C 605.297 285.329, 604.839 288.299, 604.462 291.635 C 603.871 296.861, 604.016 297.792, 605.515 298.367 C 606.471 298.734, 607.871 298.522, 608.627 297.895 C 609.382 297.268, 610 296.185, 610 295.488 C 610 294.792, 610.788 293.308, 611.750 292.191 C 612.712 291.074, 614.962 289.864, 616.750 289.501 C 620 288.841, 620 288.841, 620 308.942 C 620 329.043, 620 329.043, 617.250 330.251 C 615.737 330.916, 614.169 331.918, 613.765 332.480 C 613.361 333.041, 613.024 334.063, 613.015 334.750 C 613.004 335.681, 616.058 336, 625 336 C 637 336, 637 336, 637 333.500 C 637 331.759, 636.453 331, 635.200 331 C 634.210 331, 632.860 330.460, 632.200 329.800 C 631.347 328.947, 631 322.867, 631 308.800 C 631 297.910, 631.383 289, 631.851 289 C 632.319 289, 634.128 289.497, 635.872 290.105 C 637.616 290.713, 639.483 292.033, 640.021 293.039 C 640.559 294.045, 641 295.851, 641 297.051 C 641 298.826, 641.420 299.121, 643.250 298.630 C 644.487 298.299, 645.837 298.021, 646.250 298.014 C 646.663 298.006, 647 296.256, 647 294.125 C 647 291.994, 646.740 288.951, 646.423 287.363 C 645.845 284.477, 645.845 284.477, 625.827 284.488 C 614.817 284.495, 605.660 284.741, 605.479 285.035 M 652.417 284.917 C 652.188 285.146, 652 286.086, 652 287.006 C 652 287.926, 653.125 289.192, 654.500 289.818 C 657 290.957, 657 290.957, 657 310.460 C 657 329.962, 657 329.962, 654.500 330.589 C 652.705 331.040, 652 331.891, 652 333.608 C 652 335.979, 652.094 336, 662.500 336 C 672.740 336, 673 335.944, 673 333.737 C 673 332.350, 672.130 331.092, 670.750 330.487 C 668.543 329.519, 668.495 329.132, 668.228 310.238 C 667.957 290.977, 667.957 290.977, 670.478 289.828 C 672.003 289.133, 673 287.853, 673 286.589 C 673 284.608, 672.477 284.500, 662.917 284.500 C 657.371 284.500, 652.646 284.688, 652.417 284.917 M 696.245 284.977 C 694.454 285.402, 691.409 286.818, 689.478 288.125 C 687.547 289.431, 684.839 292.114, 683.461 294.087 C 682.082 296.060, 680.501 299.210, 679.948 301.087 C 679.395 302.964, 678.919 307.083, 678.891 310.240 C 678.862 313.397, 679.388 317.672, 680.061 319.740 C 680.733 321.808, 682.655 325.248, 684.332 327.384 C 686.058 329.583, 689.576 332.290, 692.440 333.624 C 695.223 334.920, 698.708 335.985, 700.185 335.990 C 701.662 335.996, 704.137 336.470, 705.685 337.044 C 707.233 337.618, 711.079 340.768, 714.231 344.044 C 717.383 347.320, 720.758 349.965, 721.731 349.922 C 722.704 349.880, 725.750 349.056, 728.500 348.091 C 732.171 346.804, 733.585 345.761, 733.820 344.169 C 734.070 342.472, 733.634 342.003, 731.820 342.015 C 730.544 342.023, 726.237 340.360, 722.250 338.319 C 718.263 336.279, 715 334.247, 715 333.804 C 715 333.362, 715.434 333, 715.965 333 C 716.496 333, 718.548 331.580, 720.524 329.845 C 722.501 328.109, 725.059 324.847, 726.209 322.595 C 727.446 320.172, 728.495 315.776, 728.779 311.829 C 729.134 306.874, 728.776 303.819, 727.386 299.954 C 726.355 297.085, 723.852 293.088, 721.808 291.043 C 719.582 288.817, 716.038 286.670, 712.936 285.668 C 710.095 284.751, 705.910 284.046, 703.635 284.102 C 701.361 284.159, 698.035 284.552, 696.245 284.977 M 733.999 286.628 C 734 287.798, 734.997 289.418, 736.217 290.228 C 738.330 291.631, 738.459 292.531, 738.985 309.600 C 739.397 322.978, 739.910 328.075, 741.018 329.778 C 741.833 331.030, 744.330 332.943, 746.566 334.028 C 749.240 335.325, 752.662 335.992, 756.566 335.978 C 760.163 335.965, 764.105 335.227, 766.576 334.105 C 769.435 332.806, 771.212 331.096, 772.529 328.377 C 774.049 325.239, 774.511 321.308, 774.954 307.767 C 775.477 291.730, 775.596 290.966, 777.805 289.422 C 779.073 288.535, 779.973 287.129, 779.805 286.297 C 779.565 285.109, 777.892 284.784, 772 284.781 C 765.359 284.779, 764.466 284.999, 764.204 286.708 C 764.012 287.959, 764.772 289.031, 766.363 289.756 C 768.552 290.753, 768.896 291.710, 769.541 298.591 C 769.938 302.835, 769.966 310.401, 769.602 315.404 C 769.137 321.790, 768.399 325.245, 767.124 327 C 766.126 328.375, 763.740 329.898, 761.823 330.385 C 759.339 331.016, 757.498 330.872, 755.418 329.884 C 753.813 329.122, 751.707 326.923, 750.738 324.999 C 749.242 322.028, 749.016 319.162, 749.238 306 C 749.491 291.005, 749.573 290.468, 751.750 289.513 C 753.012 288.959, 753.999 287.642, 753.998 286.513 C 753.997 284.630, 753.351 284.500, 743.997 284.500 C 734.464 284.500, 733.998 284.599, 733.999 286.628 M 785.441 284.892 C 785.199 285.135, 785 286.158, 785 287.167 C 785 288.175, 785.450 289, 786 289 C 786.550 289, 787.900 289.900, 789 291 C 790.837 292.837, 790.999 294.323, 790.986 309.250 C 790.979 318.188, 790.716 326.458, 790.402 327.628 C 790.087 328.799, 788.744 330.251, 787.415 330.857 C 786.009 331.497, 785 332.810, 785 334 C 785 335.996, 785.443 336.037, 804.200 335.772 C 823.400 335.500, 823.400 335.500, 824.544 329.166 C 825.672 322.925, 825.654 322.819, 823.280 321.916 C 821.954 321.412, 820.674 321, 820.435 321 C 820.196 321, 820 321.668, 820 322.484 C 820 323.301, 818.742 325.376, 817.204 327.097 C 814.728 329.869, 813.752 330.242, 808.670 330.363 C 804.545 330.462, 802.665 330.078, 801.981 329 C 801.458 328.175, 801.024 323.962, 801.015 319.639 C 801 311.777, 801 311.777, 804.750 312.452 C 806.813 312.822, 809.063 313.859, 809.750 314.754 C 810.438 315.650, 811 316.971, 811 317.691 C 811 318.421, 812.107 319, 813.500 319 C 815.981 319, 816 318.933, 816 310 C 816 301.630, 815.858 301, 813.975 301 C 812.757 301, 811.586 301.958, 811.037 303.403 C 810.534 304.724, 809.758 306.015, 809.312 306.272 C 808.865 306.528, 806.813 307.042, 804.750 307.414 C 801 308.091, 801 308.091, 801 298.421 C 801 288.752, 801 288.752, 806.669 289.222 C 811.267 289.604, 812.780 290.205, 814.669 292.402 C 815.951 293.892, 817 295.761, 817 296.556 C 817 297.434, 817.991 298, 819.531 298 C 820.924 298, 822.257 297.438, 822.495 296.750 C 822.732 296.063, 822.606 293.025, 822.213 290 C 821.500 284.500, 821.500 284.500, 803.691 284.475 C 793.897 284.462, 785.684 284.649, 785.441 284.892 M 364.667 289.667 C 364.300 290.033, 364 294.592, 364 299.797 C 364 309.260, 364 309.260, 368.718 308.728 C 372.354 308.318, 374.073 307.483, 376.218 305.083 C 377.748 303.370, 379 301.143, 379 300.133 C 379 299.124, 378.489 296.833, 377.865 295.042 C 377.095 292.834, 375.656 291.336, 373.397 290.392 C 371.564 289.627, 369 289, 367.699 289 C 366.398 289, 365.033 289.300, 364.667 289.667 M 542.750 289.574 C 542.337 289.991, 542 294.533, 542 299.667 C 542 308.987, 542.003 309, 544.532 309 C 545.925 309, 548.589 308.363, 550.452 307.585 C 552.315 306.806, 554.325 305.261, 554.920 304.150 C 555.514 303.040, 556 300.552, 556 298.622 C 556 296.423, 555.159 294.134, 553.748 292.494 C 552.268 290.773, 550.127 289.694, 547.498 289.345 C 545.299 289.053, 543.163 289.156, 542.750 289.574 M 696.401 290.841 C 694.549 292.004, 692.600 294.539, 691.557 297.143 C 690.442 299.924, 689.820 304.127, 689.837 308.761 C 689.857 314.344, 690.441 317.283, 692.364 321.484 C 694.001 325.060, 696.012 327.646, 698.183 328.970 C 700.007 330.082, 703.033 330.994, 704.906 330.996 C 706.996 330.999, 709.569 330.041, 711.566 328.517 C 713.398 327.120, 715.567 324.081, 716.527 321.570 C 717.726 318.428, 718.117 315.089, 717.845 310.302 C 717.582 305.666, 716.669 301.925, 714.979 298.552 C 713.616 295.831, 711.336 292.760, 709.913 291.729 C 708.491 290.697, 705.566 289.638, 703.413 289.374 C 700.626 289.033, 698.608 289.455, 696.401 290.841 M 314.375 300.607 C 314.005 301.648, 312.645 305.165, 311.351 308.422 C 310.058 311.680, 309 314.717, 309 315.172 C 309 315.628, 311.925 316, 315.500 316 C 319.075 316, 322 315.654, 322 315.231 C 322 314.808, 320.596 311.096, 318.879 306.981 C 317.162 302.866, 315.598 299.323, 315.403 299.107 C 315.207 298.891, 314.745 299.566, 314.375 300.607 M 448.667 313.667 C 448.300 314.033, 448 315.383, 448 316.667 C 448 318.968, 448.148 319, 458.883 319 C 469.324 319, 469.791 318.909, 470.370 316.750 C 470.701 315.512, 470.979 314.163, 470.986 313.750 C 470.994 313.337, 466.125 313, 460.167 313 C 454.208 313, 449.033 313.300, 448.667 313.667 M 204.481 350.394 C 202.821 351.117, 200.031 353.340, 198.281 355.333 C 196.456 357.411, 194.841 360.566, 194.494 362.729 C 194.162 364.803, 193.709 367.375, 193.488 368.443 C 193.267 369.512, 193.786 373.858, 194.641 378.102 C 196.055 385.122, 196.051 386.312, 194.598 391.312 C 193.719 394.335, 193 397.131, 193 397.526 C 193 397.922, 193.686 397.676, 194.524 396.980 C 195.362 396.284, 196.299 395.966, 196.605 396.272 C 196.911 396.578, 196.646 397.792, 196.016 398.970 C 195.386 400.147, 195.012 401.531, 195.185 402.044 C 195.358 402.557, 198.630 401.102, 202.455 398.811 C 206.280 396.519, 212.130 391.880, 215.455 388.503 C 218.780 385.125, 222.689 380.142, 224.143 377.431 C 225.596 374.719, 227.105 370.992, 227.494 369.149 C 227.896 367.250, 227.681 363.934, 226.999 361.495 C 226.328 359.100, 224.399 355.880, 222.647 354.230 C 220.916 352.601, 217.970 350.758, 216.101 350.134 C 214.231 349.510, 211.531 349.018, 210.101 349.039 C 208.670 349.061, 206.142 349.670, 204.481 350.394" stroke="none" fill="#ffffff" fill-rule="evenodd"/><path d="" stroke="none" fill="#000000" fill-rule="evenodd"/></svg>